<svg xmlns="http://www.w3.org/2000/svg" width="1500" height="1000" viewBox="0 0 1500 1000">
  <defs>
    <style>
      .cls-1 {
        fill: #5788ec;
        fill-rule: evenodd;
      }
    </style>
  </defs>
  <path id="Preenchimento_de_Cor_1" data-name="Preenchimento de Cor 1" class="cls-1" d="M-65,125C13.441,78.328,106.9,71.368,177,80c113.775,14.01,141.187,75.3,255,89,119.323,14.359,174.316-56.815,288.82-28.621,105.134,25.886,168.773,144.069,233.439,192.429C1067.63,417.6,1165.88,434.227,1170.35,501.577c4.18,63.1-87.82,101.51-120.35,176.423-38.77,89.281,11.75,189.068-42.11,239.981-52.337,49.465-140.322-.1-278.89-1.981-107.619-1.458-153.134,43.516-260.546,36.681C310.079,942.6,257.5,854.026,103,858c-104.916,2.7-184.319,80.244-252.842,47.363C-311.324,827.876-330.771,283.133-65,125Z"/>
</svg>
